<svg width="19" height="19" viewBox="0 0 19 19" fill="none" xmlns="http://www.w3.org/2000/svg">
<path d="M5.80784 0H13.4381C16.3449 0 18.7067 2.36176 18.7067 5.26853V12.8988C18.7067 14.2961 18.1516 15.6362 17.1635 16.6242C16.1755 17.6123 14.8354 18.1673 13.4381 18.1673H5.80784C2.90106 18.1673 0.539307 15.8056 0.539307 12.8988V5.26853C0.539307 3.87123 1.09438 2.53116 2.08242 1.54312C3.07047 0.555076 4.41054 0 5.80784 0ZM5.62616 1.81673C4.75887 1.81673 3.92711 2.16126 3.31384 2.77453C2.70057 3.3878 2.35604 4.21957 2.35604 5.08686V13.0805C2.35604 14.8881 3.81851 16.3506 5.62616 16.3506H13.6198C14.4871 16.3506 15.3189 16.0061 15.9321 15.3928C16.5454 14.7796 16.8899 13.9478 16.8899 13.0805V5.08686C16.8899 3.27921 15.4274 1.81673 13.6198 1.81673H5.62616ZM14.3919 3.17929C14.6931 3.17929 14.9819 3.29891 15.1948 3.51185C15.4077 3.72479 15.5274 4.0136 15.5274 4.31475C15.5274 4.61589 15.4077 4.9047 15.1948 5.11764C14.9819 5.33058 14.6931 5.4502 14.3919 5.4502C14.0908 5.4502 13.802 5.33058 13.589 5.11764C13.3761 4.9047 13.2565 4.61589 13.2565 4.31475C13.2565 4.0136 13.3761 3.72479 13.589 3.51185C13.802 3.29891 14.0908 3.17929 14.3919 3.17929ZM9.62298 4.54184C10.8276 4.54184 11.9828 5.02035 12.8345 5.87211C13.6863 6.72387 14.1648 7.8791 14.1648 9.08367C14.1648 10.2882 13.6863 11.4435 12.8345 12.2952C11.9828 13.147 10.8276 13.6255 9.62298 13.6255C8.41841 13.6255 7.26318 13.147 6.41142 12.2952C5.55966 11.4435 5.08114 10.2882 5.08114 9.08367C5.08114 7.8791 5.55966 6.72387 6.41142 5.87211C7.26318 5.02035 8.41841 4.54184 9.62298 4.54184ZM9.62298 6.35857C8.90024 6.35857 8.2071 6.64568 7.69604 7.15674C7.18499 7.66779 6.89788 8.36093 6.89788 9.08367C6.89788 9.80642 7.18499 10.4996 7.69604 11.0106C8.2071 11.5217 8.90024 11.8088 9.62298 11.8088C10.3457 11.8088 11.0389 11.5217 11.5499 11.0106C12.061 10.4996 12.3481 9.80642 12.3481 9.08367C12.3481 8.36093 12.061 7.66779 11.5499 7.15674C11.0389 6.64568 10.3457 6.35857 9.62298 6.35857Z" fill="black"/>
</svg>
