<svg width="17" height="19" viewBox="0 0 17 19" fill="none" xmlns="http://www.w3.org/2000/svg">
<path d="M13.3081 2.84622C12.6183 2.05849 12.2381 1.04704 12.2382 0H9.11952V12.5153C9.09596 13.1927 8.81019 13.8345 8.32248 14.3053C7.83478 14.776 7.18328 15.0389 6.50544 15.0385C5.07223 15.0385 3.88126 13.8677 3.88126 12.4144C3.88126 10.6784 5.5567 9.37637 7.28259 9.9113V6.72192C3.80052 6.25764 0.752441 8.96256 0.752441 12.4144C0.752441 15.7753 3.5381 18.1673 6.49534 18.1673C9.66454 18.1673 12.2382 15.5936 12.2382 12.4144V6.06588C13.5029 6.97409 15.0212 7.46138 16.5782 7.45871V4.33998C16.5782 4.33998 14.6807 4.43081 13.3081 2.84622Z" fill="black"/>
</svg>
