<svg width="20" height="19" viewBox="0 0 20 19" fill="none" xmlns="http://www.w3.org/2000/svg">
<path fill-rule="evenodd" clip-rule="evenodd" d="M10.8852 5.2031V7.25842C11.3157 6.6028 11.9089 6.07016 12.607 5.71264C13.305 5.35512 14.084 5.18497 14.8675 5.21884C19.052 5.21884 19.9568 7.83493 19.9568 11.2383V18.1672H16.0811V12.0243C16.0811 10.5588 15.7856 8.67426 13.5038 8.67426C11.291 8.67426 10.9131 10.2693 10.9131 11.9153V18.1672H7.04954V5.2031H10.8852ZM4.45404 1.94511C4.45356 2.32904 4.33976 2.7043 4.12688 3.02382C3.91401 3.34334 3.61155 3.59291 3.25742 3.74124C2.90344 3.88837 2.51368 3.92686 2.13776 3.85181C1.76183 3.77675 1.41674 3.59155 1.14639 3.31976C0.875535 3.04781 0.691136 2.70184 0.616381 2.32537C0.541626 1.94889 0.579853 1.55872 0.726254 1.20392C0.872655 0.849109 1.12069 0.54551 1.43918 0.331297C1.75767 0.117083 2.13238 0.00181964 2.5162 0C2.77129 -1.79358e-06 3.02388 0.0503615 3.25946 0.148201C3.49505 0.246041 3.709 0.389431 3.88904 0.570147C4.06908 0.750862 4.21166 0.965347 4.30862 1.2013C4.40558 1.43724 4.455 1.69002 4.45404 1.94511Z" fill="black"/>
<path d="M4.45405 5.21894H0.578369V18.1673H4.45405V5.21894Z" fill="black"/>
</svg>
